<?xml version="1.0" standalone="no"?>
<!DOCTYPE svg PUBLIC "-//W3C//DTD SVG 20010904//EN"
 "http://www.w3.org/TR/2001/REC-SVG-20010904/DTD/svg10.dtd">
<svg version="1.0" xmlns="http://www.w3.org/2000/svg"
 width="200.000000pt" height="200.000000pt" viewBox="0 0 200.000000 200.000000"
 preserveAspectRatio="xMidYMid meet">
<metadata>
Created by potrace 1.11, written by Peter Selinger 2001-2013
</metadata>
<g transform="translate(0.000000,200.000000) scale(0.100000,-0.100000)"
fill="#000000" stroke="none">
<path d="M871 1895 c-176 -50 -319 -152 -380 -272 -11 -23 -27 -46 -34 -50
-19 -11 -46 -184 -41 -258 3 -33 6 -81 8 -106 5 -73 46 -146 133 -236 54 -56
97 -90 138 -111 33 -16 82 -40 108 -53 51 -26 75 -27 247 -17 81 5 107 11 175
43 44 20 107 57 140 82 51 39 67 59 105 136 25 49 46 97 47 106 0 9 9 61 19
115 14 84 15 111 5 176 -12 78 -42 175 -61 194 -5 5 -10 20 -10 33 0 13 -6 23
-12 23 -7 0 -29 17 -49 38 -47 50 -154 120 -204 133 -22 6 -51 16 -65 21 -43
18 -209 20 -269 3z m7 -316 c0 -21 11 -43 31 -63 36 -37 41 -54 9 -32 -39 28
-43 17 -7 -21 18 -20 28 -32 20 -28 -10 6 -13 4 -9 -6 22 -54 22 -52 0 -40
-30 16 -27 2 8 -39 34 -41 40 -62 8 -34 -21 19 -21 19 -14 -1 17 -42 18 -55 6
-55 -9 0 -9 -4 1 -17 13 -15 12 -15 -8 -5 -12 7 -26 20 -32 30 -14 24 -20 13
-24 -44 -2 -36 -7 -50 -19 -52 -15 -3 -15 2 -7 33 13 45 6 54 -23 29 -17 -15
-16 -12 5 17 36 48 34 73 -3 32 l-29 -32 3 33 c2 19 13 48 26 65 22 32 21 56
-2 33 -22 -22 -29 -12 -10 16 24 35 46 91 39 98 -3 3 -15 -4 -26 -15 -30 -30
-46 -26 -23 7 35 50 37 56 17 49 -10 -4 -4 6 14 22 17 16 31 34 31 40 0 27 17
8 18 -20z m248 4 c-4 -9 3 -43 15 -75 15 -42 19 -62 11 -71 -7 -8 -7 -18 -2
-27 6 -8 10 -22 10 -30 -1 -13 -2 -13 -13 0 -7 8 -21 22 -31 30 -18 14 -18 13
-11 -10 4 -14 14 -28 21 -33 7 -4 11 -13 8 -21 -3 -7 2 -19 11 -26 8 -7 15
-17 15 -23 0 -6 -11 0 -25 13 -23 22 -25 22 -25 4 0 -10 9 -32 20 -49 22 -33
25 -45 11 -45 -5 0 -14 14 -21 30 -17 42 -28 37 -35 -15 -4 -24 -14 -52 -22
-62 -13 -17 -14 -16 -9 7 4 14 9 35 12 48 8 27 -7 29 -31 2 -26 -28 -39 -25
-19 5 15 23 15 25 0 19 -18 -7 -22 11 -5 21 6 4 8 13 5 21 -3 8 3 31 14 51 22
41 19 53 -6 32 -10 -8 -1 8 19 34 41 54 49 82 14 49 -40 -37 -37 -25 9 44 24
36 44 72 44 80 0 8 5 14 11 14 6 0 8 -7 5 -17z m204 -65 c0 -6 11 -26 26 -45
28 -37 23 -46 -6 -10 -30 36 -33 13 -6 -44 31 -64 32 -72 6 -64 -27 9 -25 2
11 -40 28 -32 29 -51 1 -23 -17 17 -15 -4 4 -30 8 -12 11 -22 5 -22 -5 0 -19
16 -31 36 -12 19 -24 33 -26 31 -7 -6 13 -54 25 -62 21 -12 11 -26 -10 -15
-27 15 -32 9 -32 -39 0 -30 -4 -41 -19 -44 -14 -4 -18 -1 -14 11 3 9 8 34 12
56 6 37 6 38 -15 27 -11 -7 -21 -16 -21 -21 0 -6 -7 -10 -16 -10 -14 0 -14 3
-4 15 7 8 9 15 4 15 -5 0 5 11 21 24 17 13 27 28 23 32 -5 4 -17 -1 -28 -11
-11 -10 -20 -14 -20 -9 0 5 15 22 33 38 21 19 27 31 19 33 -7 3 -19 -1 -27 -7
-12 -10 -15 -9 -15 3 0 8 7 20 16 28 17 14 48 69 38 69 -3 0 -14 -10 -24 -22
-10 -13 -3 9 17 49 32 64 53 84 53 51z m-635 -18 c4 -17 16 -40 28 -50 11 -11
17 -20 12 -20 -5 0 -16 7 -25 15 -31 28 -33 -10 -2 -46 23 -28 24 -31 5 -21
-12 7 -24 12 -27 12 -15 0 -4 -31 21 -61 25 -30 26 -31 5 -25 -35 12 -27 -21
11 -44 22 -14 26 -20 14 -20 -16 0 -16 -2 -3 -22 12 -19 12 -25 1 -35 -10 -10
-16 -9 -25 2 -18 22 -28 18 -32 -12 -2 -17 -10 -29 -21 -31 -17 -4 -18 -2 -2
28 19 37 15 46 -14 30 -12 -6 -21 -8 -21 -4 0 3 -8 0 -17 -7 -10 -7 -8 -2 5
12 32 37 27 69 -7 37 -7 -7 3 11 23 41 37 56 40 77 8 48 -25 -23 -35 -21 -20
3 11 17 10 22 0 29 -11 6 -8 16 12 46 15 21 23 41 20 44 -4 3 -9 0 -11 -6 -3
-7 -9 -13 -15 -13 -5 0 2 13 15 30 14 16 28 39 32 50 9 29 22 25 30 -10z"/>
<path d="M95 658 c-9 -25 -35 -143 -35 -160 0 -22 28 -24 36 -3 4 8 12 15 19
15 7 0 15 -7 19 -15 3 -8 14 -15 25 -15 22 0 23 -8 -3 125 -10 50 -16 61 -34
63 -12 2 -24 -3 -27 -10z"/>
<path d="M652 654 c-19 -13 -22 -24 -22 -75 0 -76 12 -99 50 -99 37 0 60 23
60 61 0 24 -4 29 -24 29 -30 0 -42 -16 -27 -34 12 -14 4 -29 -10 -20 -11 6
-12 98 -2 108 4 4 15 -3 24 -15 17 -23 39 -19 39 7 0 17 -35 54 -53 54 -7 0
-23 -7 -35 -16z"/>
<path d="M825 658 c-6 -17 -35 -156 -35 -169 0 -15 30 -10 36 6 4 8 12 15 19
15 7 0 15 -7 19 -15 7 -20 36 -19 36 1 0 34 -24 149 -33 162 -5 6 -16 12 -24
12 -7 0 -16 -6 -18 -12z"/>
<path d="M1097 664 c-4 -4 -7 -47 -7 -96 l0 -88 44 0 c34 0 46 4 49 18 10 34
5 141 -7 150 -16 14 -71 24 -79 16z m48 -64 c-5 -8 -11 -8 -17 -2 -6 6 -7 16
-3 22 5 8 11 8 17 2 6 -6 7 -16 3 -22z m5 -71 c0 -5 -7 -9 -15 -9 -9 0 -12 6
-9 15 6 15 24 11 24 -6z"/>
<path d="M1426 658 c-7 -20 -36 -159 -36 -169 0 -15 30 -10 36 6 4 8 12 15 19
15 7 0 15 -7 19 -15 3 -8 12 -15 21 -15 18 0 18 19 2 115 -11 60 -15 70 -35
73 -12 2 -24 -3 -26 -10z"/>
<path d="M1561 656 c-18 -22 -11 -181 9 -181 12 0 16 18 18 89 3 91 -5 119
-27 92z"/>
<path d="M1796 663 c-3 -4 -6 -46 -6 -95 0 -69 3 -88 14 -88 15 0 26 21 26 51
0 10 5 19 10 19 6 0 10 -16 10 -35 0 -28 4 -35 19 -35 16 0 20 10 26 63 9 81
4 111 -17 115 -12 2 -19 -6 -24 -32 -8 -46 -24 -47 -24 -2 0 31 -19 53 -34 39z"/>
<path d="M222 573 c3 -88 19 -120 36 -72 l9 23 6 -23 c8 -31 28 -22 43 20 l12
34 1 -37 c1 -25 6 -38 15 -38 16 0 28 88 19 143 -5 31 -9 37 -27 35 -13 -2
-24 -14 -30 -35 -12 -43 -22 -42 -30 2 -6 29 -11 35 -32 35 -25 0 -25 0 -22
-87z"/>
<path d="M413 643 c8 -28 26 -105 32 -135 7 -39 35 -37 35 2 0 16 9 53 20 82
24 63 24 68 5 68 -8 0 -20 -12 -28 -26 l-13 -25 -12 25 c-13 30 -47 37 -39 9z"/>
<path d="M950 570 l0 -90 46 0 c38 0 45 3 42 18 -2 9 -13 18 -26 20 -20 3 -22
9 -22 73 0 62 -2 69 -20 69 -19 0 -20 -7 -20 -90z"/>
<path d="M1235 591 c-4 -38 -4 -79 0 -90 9 -30 33 -26 37 7 l4 27 14 -27 c7
-16 21 -28 32 -28 21 0 21 -2 7 39 -8 23 -8 39 0 59 8 20 9 36 2 55 -9 23 -16
27 -50 27 l-39 0 -7 -69z m65 13 c0 -8 -4 -14 -10 -14 -5 0 -10 9 -10 21 0 11
5 17 10 14 6 -3 10 -13 10 -21z"/>
<path d="M1635 649 c-4 -6 2 -13 14 -16 19 -5 21 -13 21 -80 0 -66 2 -74 18
-71 14 3 18 16 20 76 2 55 6 72 17 72 8 0 15 7 15 15 0 11 -12 15 -49 15 -28
0 -53 -5 -56 -11z"/>
<path d="M1437 371 c-21 -36 -75 -61 -87 -41 -7 11 -14 11 -34 2 -16 -7 -27
-8 -31 -1 -4 5 -17 1 -32 -11 -26 -20 -53 -27 -53 -12 0 4 -4 13 -9 20 -7 11
-16 10 -49 -7 -49 -25 -56 -26 -49 -7 4 10 -2 16 -21 18 -19 3 -36 -5 -59 -26
-19 -17 -33 -24 -33 -17 0 8 -6 11 -15 7 -8 -3 -15 -1 -15 4 0 6 9 10 20 10
11 0 20 5 20 10 0 13 -23 13 -55 -2 -19 -9 -30 -8 -49 1 -20 11 -29 10 -64 -8
-48 -25 -52 -25 -52 -8 0 19 33 47 54 47 13 0 14 3 4 13 -9 10 -17 11 -34 3
-12 -6 -20 -14 -18 -18 3 -4 -10 -15 -27 -24 -26 -13 -36 -14 -54 -4 -18 10
-29 8 -63 -9 -39 -20 -40 -20 -35 -1 4 14 0 20 -13 20 -15 0 -15 3 6 25 13 14
20 28 16 32 -3 4 -19 -7 -35 -24 -15 -17 -43 -38 -60 -48 -31 -15 -33 -15 -46
1 -11 15 -15 16 -28 5 -9 -7 -21 -10 -26 -6 -6 3 -19 1 -28 -4 -17 -10 -17
-10 -1 -11 15 0 16 -4 8 -26 -6 -15 -19 -38 -30 -52 -21 -27 -25 -42 -11 -42
5 0 17 17 26 38 24 50 54 92 67 92 6 0 6 -6 -2 -15 -20 -24 -7 -27 35 -9 28
12 40 13 45 4 5 -9 9 -9 14 -1 4 6 17 16 28 22 19 10 20 9 15 -11 -5 -20 -3
-22 22 -17 16 3 33 1 38 -4 7 -7 26 -5 58 6 29 9 51 12 54 7 5 -9 138 -9 166
-2 16 5 45 -11 45 -25 0 -7 -9 -24 -20 -38 -22 -28 -25 -37 -10 -37 5 0 19 18
30 39 30 60 110 108 110 66 0 -18 1 -18 36 -5 20 8 29 8 34 -1 6 -8 20 -8 56
-1 27 6 51 8 54 6 2 -3 -6 -25 -19 -50 -31 -59 -20 -68 15 -12 15 23 37 53 48
66 21 24 46 31 26 7 -10 -12 -7 -13 22 -5 42 13 51 12 43 0 -3 -5 -2 -10 4
-10 5 0 13 4 16 10 3 5 15 15 27 21 18 10 19 8 13 -12 -6 -19 -4 -21 16 -17
13 3 33 9 43 13 13 6 17 5 12 -3 -3 -6 2 -12 15 -14 19 -3 18 -6 -16 -46 -21
-24 -34 -46 -30 -50 4 -4 17 6 29 23 11 16 36 45 54 63 34 36 43 53 15 31 -15
-12 -16 -12 -10 4 7 20 -3 22 -22 5 -11 -11 -12 -9 -6 11 l7 24 -35 -22 c-36
-22 -36 -22 -56 -2 -17 17 -18 22 -6 38 16 20 19 33 7 33 -4 0 -15 -13 -25
-29z m-252 -61 c-3 -5 -11 -10 -16 -10 -6 0 -7 5 -4 10 3 6 11 10 16 10 6 0 7
-4 4 -10z m-510 -10 c-3 -5 -11 -10 -16 -10 -6 0 -7 5 -4 10 3 6 11 10 16 10
6 0 7 -4 4 -10z m195 0 c0 -5 -4 -10 -10 -10 -5 0 -10 5 -10 10 0 6 5 10 10
10 6 0 10 -4 10 -10z"/>
</g>
</svg>
