<svg xmlns="http://www.w3.org/2000/svg" viewBox="0 0 350.84 234"><title>Asset 2</title><g id="Layer_2" data-name="Layer 2"><g id="Layer_1-2" data-name="Layer 1"><path d="M2.41,0c0,3.6.38,7.25-.39,10.76a1.68,1.68,0,0,1,.06.41c0,2.29.26,4.56.2,6.82A23.8,23.8,0,0,1,2,24.08a1.35,1.35,0,0,1-.51.88v7.1C1.63,38.51,1.84,45,2,51.4c.24,8.79,1,18,.22,26.77,0,0,0,.07,0,.1a1.7,1.7,0,0,1,0,.23,74.19,74.19,0,0,1-.74,8.69h0c1.15,4.47.58,9.64,0,14.6v17.75c.07.93.13,1.86.14,2.79,0,2.54-.05,5.08-.14,7.62v21c.12,6.49.35,13,.57,19.48a88.87,88.87,0,0,1-.57,12.82v49.69l0,1.05H350.84V0Z"/><path d="M2.64,72a59.84,59.84,0,0,1-.12-7.15.5.5,0,0,0-1,0A64.89,64.89,0,0,0,1.6,71.4a.54.54,0,0,0-.37.59c.67,4.67.19,9-.33,13.61,0,.41.5.62.8.41l-.05,2.61a.54.54,0,0,0-.41-.08c0-.36-.08-.72-.13-1.08-.08-.63-1.08-.64-1,0A102.16,102.16,0,0,1,.75,106.7c0,.64,1,.64,1,0q.27-4.62.14-9.23a.56.56,0,0,0,.43-.11,1.23,1.23,0,0,0,.45-1.46.44.44,0,0,0-.27-.32L2.7,86a.49.49,0,0,0-.76-.4,10.34,10.34,0,0,0,.9-4.76.48.48,0,0,0-.42-.47c0-.09,0-.17,0-.26a.54.54,0,0,0,.72-.45A40.45,40.45,0,0,0,2.64,72Z"/><path d="M1.73,41.5,1.55,49a.5.5,0,0,0,1,0l.17-7.5A.5.5,0,0,0,1.73,41.5Z"/><path d="M3,.5A.47.47,0,0,0,2.36.05.49.49,0,0,0,1.67.5v1A.46.46,0,0,0,2,2c0,.74,0,1.48.1,2.22s1.06.64,1,0A24.24,24.24,0,0,1,3,.5Z"/><path d="M2.23,216.71c-.27,1.13-.48,2.29-.67,3.45a.43.43,0,0,0-.12-.11c.47-3.56.81-7.13,1-10.71a.43.43,0,0,0-.41-.47v-.63a.51.51,0,0,0-1-.2c0-.23,0-.47,0-.7,0-.52,0-1,0-1.56a.48.48,0,0,0,.7-.43c0-.6-.07-1.2-.12-1.8a.5.5,0,0,0,.95-.3,18.76,18.76,0,0,1-.66-5.09.46.46,0,0,0,.46-.48V194a.45.45,0,0,0-.26-.42A17.89,17.89,0,0,0,3,189.17c0-.64-1-.64-1,0s-.12,1.1-.21,1.64c.05-1,.12-2,.21-2.94a.49.49,0,0,0,.76-.53,16.77,16.77,0,0,1-.47-2c.18-1.36.38-2.71.63-4.06.12-.63-.85-.9-1-.27l0,.11c0-3.21.36-6.51.6-9.46,0-.44-.42-.57-.73-.41,0-.88,0-1.75,0-2.62a.49.49,0,0,0,.48-.47l.21-3.83a.45.45,0,0,0-.56-.47c.18-4.3.53-8.59,1.08-12.86.08-.64-.92-.63-1,0A150.24,150.24,0,0,0,.87,175a.47.47,0,0,0,.34.45,40.43,40.43,0,0,0,.08,9.92,74.33,74.33,0,0,0-.62,9.27.55.55,0,0,0,.68.48v2.25H1.28l0-.36c0-.64-1-.64-1,0-.18,3.44-.35,6.88-.29,10.32s.63,6.67.48,10a.42.42,0,0,0,.24.42c-.14,1.2-.29,2.4-.46,3.6a.54.54,0,0,0,.39.6q0,2.69,0,5.38a.46.46,0,0,0,.11.3c-.13,1.91-.25,3.82-.4,5.69,0,.5.56.6.85.32a.52.52,0,0,0,.53-.48l.32-4.33a.41.41,0,0,0-.36-.46c.06-.93.13-1.87.21-2.8a.46.46,0,0,0,.23-.4c0-.55,0-1.1,0-1.64A50.09,50.09,0,0,1,3.19,217C3.34,216.35,2.38,216.08,2.23,216.71Z"/><path d="M3.62,122.76a.5.5,0,0,0-.86-.5,10.67,10.67,0,0,0-1.4,4.15.48.48,0,0,0-.6.59,13.86,13.86,0,0,1,.57,4,.5.5,0,0,0,1,0,15.11,15.11,0,0,0-.1-1.68.49.49,0,0,0,.15-.36,4.15,4.15,0,0,0-.07-.87A9.6,9.6,0,0,1,3.62,122.76Z"/></g></g></svg>