<svg xmlns="http://www.w3.org/2000/svg" viewBox="0 0 15.49 302.06"><title>Asset 1</title><g id="Layer_2" data-name="Layer 2"><g id="Layer_1-2" data-name="Layer 1"><g id="Layer_2-2" data-name="Layer 2"><path d="M11.17,119.91c-3,13.95-5.58,28.18-1.86,42.25a1.5,1.5,0,0,0,2.89-.8c-3.57-13.54-1-27.24,1.86-40.65.4-1.88-2.49-2.69-2.89-.8Z"/><path d="M11.82,127.1a69.51,69.51,0,0,0-2.18,21.24c.1,1.92,3.1,1.93,3,0a66.87,66.87,0,0,1,2.08-20.45,1.5,1.5,0,0,0-2.89-.8Z"/><path d="M12,161.36c-.53-8.15.68-16.09,2.29-24.06.38-1.89-2.51-2.69-2.89-.8C9.77,144.74,8.5,152.94,9,161.36c.12,1.92,3.13,1.93,3,0Z"/><path d="M10.5,137.07c-1.67-10-.45-19.81,2.54-29.44.57-1.85-2.32-2.64-2.89-.8a66.49,66.49,0,0,0-2.54,31c.32,1.9,3.21,1.09,2.89-.8Z"/><path d="M10.48,146.26a23.8,23.8,0,0,0,0,4.59,1.54,1.54,0,0,0,1.5,1.5,1.51,1.51,0,0,0,1.5-1.5,23.8,23.8,0,0,1,0-4.59c.18-1.92-2.82-1.91-3,0Z"/><path d="M14.11,144.76a89.54,89.54,0,0,1,.43-18.62c.22-1.91-2.78-1.9-3,0a89.53,89.53,0,0,0-.43,18.62c.18,1.91,3.18,1.92,3,0Z"/><path d="M6.52,142l7.42-19.78c.68-1.81-2.22-2.59-2.89-.8L3.63,141.21C3,143,5.85,143.8,6.52,142Z"/><path d="M5.65,143a.73.73,0,0,1,.61,0,1.67,1.67,0,0,1,.54.4,1,1,0,0,1,.26,1.19,1.51,1.51,0,0,0,1,1.85,1.53,1.53,0,0,0,1.85-1c1.06-3-2.12-6.16-5.1-5.3a1.5,1.5,0,0,0,.8,2.89Z"/><path d="M9.32,139.63A56.86,56.86,0,0,1,10.1,118c.43-1.88-2.46-2.68-2.89-.8a60.91,60.91,0,0,0-.78,23.19c.3,1.9,3.19,1.09,2.89-.8Z"/><path d="M9.32,119.71c-.44-5.24,1.72-10,3.4-14.89.63-1.83-2.26-2.61-2.89-.8-1.77,5.1-4,10.17-3.51,15.69.16,1.91,3.16,1.93,3,0Z"/><path d="M9.26,115.11c-.36-7.17-.75-14.33-1.07-21.5-.3-6.57,1-12.73,2-19.2,1.93-13.35,3.55-26.75,5.31-40.13.25-1.91-2.75-1.89-3,0C10.58,48.66,9,63.12,6.69,77.43,5.79,82.94,4.93,88,5.19,93.61c.32,7.17.71,14.33,1.07,21.5.1,1.92,3.1,1.93,3,0Z"/><path d="M7.35,8.06c1.84,32.57-5.81,65-1.4,97.54.26,1.9,3.15,1.09,2.89-.8C4.47,72.6,12.16,40.35,10.35,8.06c-.11-1.92-3.11-1.93-3,0Z"/><path d="M7,64.08A49.82,49.82,0,0,1,8.1,47.42c1.15-4.7,2.58-9.14,2.48-14,0-1.93-3-1.93-3,0,.12,5.83-2.14,11.12-3.13,16.79A52.22,52.22,0,0,0,4,64.08c.18,1.91,3.18,1.92,3,0Z"/><path d="M3.44,62.45a31.45,31.45,0,0,0,.29,7.47c.29,1.9,3.18,1.09,2.89-.8a28.24,28.24,0,0,1-.19-6.67c.16-1.92-2.84-1.91-3,0Z"/><path d="M6.67,23.86l.18,1.51L9.8,25A68.93,68.93,0,0,1,10,2.66C10.33.78,7.44,0,7.12,1.87a73.57,73.57,0,0,0-.21,23.9c.25,1.65,3.15,1.28,2.95-.4l-.18-1.51c-.22-1.89-3.23-1.92-3,0Z"/><path d="M6.82,142.53Q5.86,193.88,0,245c-.22,1.91,2.78,1.9,3,0q5.84-51,6.81-102.43c0-1.93-3-1.93-3,0Z"/><path d="M6.3,170.74Q7,210.58,5.11,250.39c-.09,1.93,2.91,1.93,3,0Q10,210.6,9.3,170.74c0-1.93-3-1.93-3,0Z"/><path d="M.88,239.62.35,288.17a1.5,1.5,0,0,0,3,0l.53-48.55a1.5,1.5,0,0,0-3,0Z"/><path d="M3.48,221.36a107.94,107.94,0,0,0,2,26.72c1.88,10,1.94,19.61,1.48,29.7-.09,1.93,2.91,1.93,3,0,.41-9.08.62-18.06-.94-27.05-1.71-9.86-3.14-19.3-2.54-29.36.11-1.93-2.89-1.92-3,0Z"/><path d="M2.86,236.37c-2.16,13.81,4.19,27.13,3.39,41-.11,1.93,2.89,1.92,3,0,.78-13.57-5.6-26.8-3.5-40.22.3-1.89-2.59-2.7-2.89-.8Z"/><path d="M3.15,255l.95,45.63c0,1.93,3,1.93,3,0L6.15,255c0-1.93-3-1.93-3,0Z"/><path d="M4,293.11l3.85-34.59c1.3-11.67,3.13-23.43,3.36-35.18.22-11.41-.81-22.81-.64-34.22A335.58,335.58,0,0,1,13,153.36c.23-1.91-2.77-1.9-3,0a335.85,335.85,0,0,0-2.48,34.79c-.21,11.74.85,23.46.63,35.19-.22,11.43-2,22.86-3.25,34.22L1,293.11c-.21,1.92,2.79,1.9,3,0Z"/><path d="M6.3,67.94c1.36,9,2.76,18.38,1,27.48-1.36,7.13-3.13,12.95-1,20.18.54,1.85,3.44,1.06,2.89-.8-2.51-8.54,1.15-15.94,1.77-24.4.57-7.79-.63-15.57-1.78-23.25-.29-1.9-3.18-1.09-2.89.8Z"/><path d="M6.24,50A167.57,167.57,0,0,1,9.43,1.89C9.83,0,6.94-.8,6.53,1.09A170.44,170.44,0,0,0,3.24,50c.15,1.91,3.15,1.93,3,0Z"/><path d="M4.68,21a33.67,33.67,0,0,0,1.7,13.25c.61,1.82,3.51,1,2.89-.8A31.49,31.49,0,0,1,7.68,21c.14-1.93-2.86-1.92-3,0Z"/><path d="M5.68,206q.91-14.74,2.65-29.41c.23-1.91-2.77-1.9-3,0Q3.59,191.25,2.68,206c-.12,1.93,2.88,1.92,3,0Z"/><path d="M3.4,174.89v10.37a1.5,1.5,0,0,0,3,0V174.89a1.5,1.5,0,0,0-3,0Z"/><path d="M6.67,172.4q.46-10.42,1.9-20.74c.27-1.89-2.62-2.7-2.89-.8q-1.51,10.73-2,21.53c-.09,1.93,2.91,1.93,3,0Z"/><path d="M4.74,24.69V1.45a1.5,1.5,0,0,0-3,0V24.69a1.5,1.5,0,0,0,3,0Z"/><path d="M3,2.28a74.68,74.68,0,0,0,.51,9.95c.22,1.89,3.23,1.92,3,0A74.68,74.68,0,0,1,6,2.28a1.5,1.5,0,0,0-3,0Z"/><path d="M11.5,122.58c2.61-24.7,1.73-49.9.87-74.68-.07-1.93-3.07-1.93-3,0,.86,24.78,1.73,50-.87,74.68-.2,1.92,2.8,1.9,3,0Z"/><path d="M9.72,59.54V36.72a1.5,1.5,0,0,0-3,0V59.54a1.5,1.5,0,0,0,3,0Z"/><path d="M8.2,26.44a43.17,43.17,0,0,0,1.91,19.33,1.51,1.51,0,0,0,2.95-.4c.09-12.52,0-24.52-3.36-36.68a1.5,1.5,0,0,0-2.89.8c3.31,11.9,3.34,23.65,3.25,35.88L13,45a41.35,41.35,0,0,1-1.8-18.53c.24-1.91-2.76-1.89-3,0Z"/><path d="M8.49,172.88a58.61,58.61,0,0,1,.26,20.35c-.31,1.89,2.58,2.7,2.89.8a63.07,63.07,0,0,0-.26-21.94c-.36-1.9-3.25-1.09-2.89.8Z"/><path d="M11.24,188.15c-1.69-5.67,2.57-11.24,2.23-17-.11-1.92-3.11-1.93-3,0,.36,6.16-4,11.61-2.12,17.82.55,1.85,3.45,1.06,2.89-.8Z"/><path d="M12.63,168.67V164.1a1.5,1.5,0,0,0-3,0v4.56a1.5,1.5,0,0,0,3,0Z"/><path d="M8,195.64v8.3a1.5,1.5,0,0,0,3,0v-8.3a1.5,1.5,0,0,0-3,0Z"/><path d="M6.57,245a68.71,68.71,0,0,1,.52,19.47c-.22,1.92,2.79,1.9,3,0a71.47,71.47,0,0,0-.63-20.27c-.33-1.9-3.22-1.09-2.89.8Z"/><path d="M10.55,244.6v-4.15a1.5,1.5,0,0,0-3,0v4.15a1.5,1.5,0,0,0,3,0Z"/><path d="M5.05,276.2a6.69,6.69,0,0,0,0,5.13c.62,1.79,1.9,3.71,1.1,5.62s2.16,2.56,2.89.8A6.56,6.56,0,0,0,8.89,283c-.52-1.49-1.92-3.64-1.24-5.25s-1.84-3.29-2.59-1.51Z"/><path d="M6.49,278.26l-1.42,6.19c-.43,1.88,2.46,2.68,2.89.8l1.42-6.19c.43-1.88-2.46-2.68-2.89-.8Z"/></g></g></g></svg>