<svg xmlns="http://www.w3.org/2000/svg" viewBox="0 0 351.51 236.26"><title>rect_mask</title><g id="Layer_2" data-name="Layer 2"><g id="Layer_1-2" data-name="Layer 1"><path d="M350.84,2c-2.18,0-4.34-.25-6.5-.49h-34.9c-1.61.06-3.22,0-4.85,0H226a.45.45,0,0,1-.42.25h-4.75a.45.45,0,0,1-.42-.25H182.81a.56.56,0,0,1-.34.48,4.72,4.72,0,0,1-2.11.3l-.52.4a.41.41,0,0,1-.66-.21A12.05,12.05,0,0,0,176.59,2a.47.47,0,0,1-.48-.5h-4.42l-1.16.12a.47.47,0,0,1-.45.63c-3.5,0-7-.23-10.5-.25a.45.45,0,0,1-.41-.24c-5.7,0-11.4.26-17.1.47a103,103,0,0,1-12.31-.73H42.49c-.1.12-.19.24-.29.35A.5.5,0,0,1,42,2a.45.45,0,0,1-.43.28c-2.49,0-5,.2-7.38-.52a.47.47,0,0,1-.28-.23H2.41c0,3.6.38,7.25-.39,10.76a1.68,1.68,0,0,1,.06.41c0,2.29.26,4.56.2,6.82A23.8,23.8,0,0,1,2,25.57a1.35,1.35,0,0,1-.51.88v7.1C1.63,40,1.84,46.44,2,52.89c.24,8.79,1,18,.22,26.77,0,0,0,.07,0,.1a1.7,1.7,0,0,1,0,.23,74.19,74.19,0,0,1-.74,8.69h0c1.15,4.47.58,9.64,0,14.6V121c.07.93.13,1.86.14,2.79,0,2.54-.05,5.08-.14,7.62v21c.12,6.49.35,13,.57,19.48a88.87,88.87,0,0,1-.57,12.82V235.1A.41.41,0,0,1,2,235c.09,0,.18,0,.26.08a.45.45,0,0,1,.27-.09h5a.47.47,0,0,1,.48.5h.34a.47.47,0,0,1,.48-.5c3.37,0,6.72.25,10.08.5H28.8a.44.44,0,0,1,.37-.17c3.51.12,7,.09,10.54,0a.45.45,0,0,1,.46-.36h16a.47.47,0,0,1,.48.5h18.7a.48.48,0,0,1,.48-.5c6.44,0,12.94-.85,19.3.5h2.42c3.62-1.9,8.32-1.67,12.24-1.47,5.39.27,10.7.62,16.1.65,7,0,14.08.17,21.09.82h7.86a.5.5,0,0,1,.2-.15c4.59-1.58,9.39-.74,14.13-.68a.51.51,0,0,1,.37.83h44.93a.5.5,0,0,1,.37-.83c4.34,0,8.67.33,13,.67a.49.49,0,0,1,.34.17h61.49c5.6-.52,11.21-.82,16.83-.83a.5.5,0,0,1,.37.83h43c.11-4.33.48-8.66.5-13a.31.31,0,0,0,0-.25c0-9.08-.24-18.17-.25-27.25a17,17,0,0,1,.75-5V163.55c-1.09-3.38-.37-6.84-.26-10.3.13-4.09-.44-8.16-.24-12.26a6.43,6.43,0,0,1,.5-2.62V119c-.49-10.72-1.34-21.5,0-32.19V74.22a2.54,2.54,0,0,1-.42-1.27.47.47,0,0,1-.58-.47c0-6.18.94-12.32.75-18.5a.43.43,0,0,1,.25-.42V52.4a.44.44,0,0,1-.25-.42c0-2.34.13-4.68.25-7V37.72a.5.5,0,0,1-.5-.48c-.07-1.51-.6-3-.54-4.51a10.56,10.56,0,0,1,1-3.51V24.45c-1-4.88-.4-9.83,0-14.77Z"/><path d="M2.64,73.48a59.84,59.84,0,0,1-.12-7.15.5.5,0,0,0-1,0,64.89,64.89,0,0,0,.08,6.57.54.54,0,0,0-.37.59c.67,4.67.19,9-.33,13.61,0,.41.5.62.8.41L1.64,90.1A.54.54,0,0,0,1.23,90c0-.36-.08-.72-.13-1.08-.08-.63-1.08-.64-1,0a102.16,102.16,0,0,1,.65,19.25c0,.64,1,.64,1,0Q2,103.57,1.89,99a.56.56,0,0,0,.43-.11,1.23,1.23,0,0,0,.45-1.46.44.44,0,0,0-.27-.32l.2-9.58a.49.49,0,0,0-.76-.4,10.34,10.34,0,0,0,.9-4.76.48.48,0,0,0-.42-.47c0-.09,0-.17,0-.26a.54.54,0,0,0,.72-.45A40.45,40.45,0,0,0,2.64,73.48Z"/><path d="M1.73,43l-.17,7.5a.5.5,0,0,0,1,0L2.73,43A.5.5,0,0,0,1.73,43Z"/><path d="M3,2a.47.47,0,0,0-.66-.45A.49.49,0,0,0,1.67,2V3A.46.46,0,0,0,2,3.44c0,.74,0,1.48.1,2.22s1.06.64,1,0A24.24,24.24,0,0,1,3,2Z"/><path d="M2.23,218.2c-.27,1.13-.48,2.29-.67,3.45a.43.43,0,0,0-.12-.11c.47-3.56.81-7.13,1-10.71a.43.43,0,0,0-.41-.47v-.63a.51.51,0,0,0-1-.2c0-.23,0-.47,0-.7,0-.52,0-1,0-1.56a.48.48,0,0,0,.7-.43c0-.6-.07-1.2-.12-1.8a.5.5,0,0,0,.95-.3,18.76,18.76,0,0,1-.66-5.09.46.46,0,0,0,.46-.48v-3.67a.45.45,0,0,0-.26-.42A17.89,17.89,0,0,0,3,190.65c0-.64-1-.64-1,0s-.12,1.1-.21,1.64c.05-1,.12-2,.21-2.94a.49.49,0,0,0,.76-.53,16.77,16.77,0,0,1-.47-2c.18-1.36.38-2.71.63-4.06.12-.63-.85-.9-1-.27l0,.11c0-3.21.36-6.51.6-9.46,0-.44-.42-.57-.73-.41,0-.88,0-1.75,0-2.62a.49.49,0,0,0,.48-.47l.21-3.83a.45.45,0,0,0-.56-.47c.18-4.3.53-8.59,1.08-12.86.08-.64-.92-.63-1,0a150.24,150.24,0,0,0-1.18,24,.47.47,0,0,0,.34.45,40.43,40.43,0,0,0,.08,9.92,74.33,74.33,0,0,0-.62,9.27.55.55,0,0,0,.68.48v2.25H1.28l0-.36c0-.64-1-.64-1,0-.18,3.44-.35,6.88-.29,10.32s.63,6.67.48,10a.42.42,0,0,0,.24.42c-.14,1.2-.29,2.4-.46,3.6a.54.54,0,0,0,.39.6q0,2.69,0,5.38a.46.46,0,0,0,.11.3c-.13,1.91-.25,3.82-.4,5.69,0,.5.56.6.85.32a.52.52,0,0,0,.53-.48l.32-4.33a.41.41,0,0,0-.36-.46c.06-.93.13-1.87.21-2.8a.46.46,0,0,0,.23-.4c0-.55,0-1.1,0-1.64a50.09,50.09,0,0,1,1.05-6.55C3.34,217.84,2.38,217.57,2.23,218.2Z"/><path d="M3.62,124.25a.5.5,0,0,0-.86-.5,10.67,10.67,0,0,0-1.4,4.15.48.48,0,0,0-.6.59,13.86,13.86,0,0,1,.57,4,.5.5,0,0,0,1,0,15.11,15.11,0,0,0-.1-1.68.49.49,0,0,0,.15-.36,4.15,4.15,0,0,0-.07-.87A9.6,9.6,0,0,1,3.62,124.25Z"/></g><g id="Layer_2-2" data-name="Layer 2"><path d="M43,2.52q5.18.27,10.36.62c.64,0,.64-1,0-1Q48.15,1.79,43,1.52c-.64,0-.64,1,0,1Z"/><path d="M2.84,1.68q14.88-.14,29.76.38c.64,0,.64-1,0-1Q17.72.54,2.84.68a.5.5,0,0,0,0,1Z"/><path d="M44.28,2.05a219.65,219.65,0,0,1,42,.64c.64.07.63-.93,0-1a219.65,219.65,0,0,0-42-.64c-.64,0-.64,1,0,1Z"/><path d="M64.09.49H59.14c-.54,0-.71.9-.13,1a27.71,27.71,0,0,0,5.58.25c.64,0,.64-1,0-1A26.44,26.44,0,0,1,59.27.5l-.13,1h4.95a.5.5,0,0,0,0-1Z"/><path d="M87.35,2.26q18-1,36-1a.5.5,0,0,0,0-1q-18,0-36,1c-.64,0-.64,1,0,1Z"/><path d="M219.35.92a168.2,168.2,0,0,0-36.35,1c-.63.09-.36,1.06.27,1a167,167,0,0,1,36.08-.93c.64,0,.64-1,0-1Z"/><path d="M184.62,1q8.37.29,16.73.9c.64,0,.64-1,0-1Q193,.29,184.62,0c-.64,0-.64,1,0,1Z"/><path d="M227.45,2.4c7.38-.89,14.81-2,22.2-.56l.27-1A70.93,70.93,0,0,0,233.64.27a.5.5,0,0,0,0,1l12.45.91c.64,0,.64-1,0-1L233.64.27v1a69.78,69.78,0,0,1,16,.58c.62.09.91-.84.27-1-7.48-1.49-15-.38-22.46.53-.63.08-.64,1.08,0,1Z"/><path d="M319.31,1.43l16-.18a.5.5,0,0,0,0-1l-16,.18a.5.5,0,0,0,0,1Z"/><path d="M303,1.28q-26.33.62-52.67-.07v1l52.24-.59a.5.5,0,0,0,0-1l-52.24.59a.5.5,0,0,0,0,1q26.33.69,52.67.07a.5.5,0,0,0,0-1Z"/><path d="M342.62.19c-9.51-.33-19,.41-28.5.76-.64,0-.64,1,0,1,9.5-.35,19-1.09,28.5-.76.64,0,.64-1,0-1Z"/><path d="M181.59,21.49a.5.5,0,0,0,0-1,.5.5,0,0,0,0,1Z"/><path d="M122.91,1.28a10.23,10.23,0,0,1,1.43,0c.28.81-1.34.27-1.6.13l-.07.41a2.32,2.32,0,0,1,1.63-.3l.36-.6h-3.89c-.39,0-1,.59-.36.6h3.89c.38,0,1-.5.36-.6A3.85,3.85,0,0,0,122,1.5c-.14.09-.28.31-.07.41a3,3,0,0,0,3.3-.16c1.28-1.16-1.6-1.07-2-1.07s-1,.59-.36.6Z"/><path d="M124.42,1.6a9.12,9.12,0,0,0,4.37-.85c.6-.28.07-.8-.43-.57a7.55,7.55,0,0,1-3.61.72c-.47,0-1,.67-.33.7Z"/><path d="M127.59.62l0,.7c0,.12.22.13.29.13l1.78.1c.24,0,1-.4.49-.51a6.47,6.47,0,0,0-5,.93c-.54.36.3.46.59.26a4.78,4.78,0,0,1,3.8-.69l.49-.51L128.3.93l.29.13,0-.7c0-.29-1-.1-1,.26Z"/><path d="M337.9,1.72a13.28,13.28,0,0,0,5.27-.83c.41-.15.32-.52-.12-.43q-2.62.53-5.27.8c-.31,0-.88.51-.26.51l5.86,0,.38-.52h-.85c-.22,0-1,.44-.49.51l2,.25c.12,0,1-.21.75-.43a4.35,4.35,0,0,0-1.64-.78c-.18,0-1,.13-.75.43l1.57,2.2c.18.25,1.11-.07.9-.37L343.72.85l-.75.43a2.87,2.87,0,0,1,1.33.65l.75-.43-2-.25-.49.51h.85c.34,0,1-.52.38-.52l-5.86,0-.26.51q2.66-.27,5.27-.8l-.12-.43a11.28,11.28,0,0,1-4.51.68c-.35,0-1,.49-.38.52Z"/><path d="M349.57,142.54l.12,4.19c0,.44.93.26,1-.1l.47-4.43c0-.43-.93-.27-1,.1l-.47,4.43,1-.1-.12-4.19c0-.45-1-.26-1,.1Z"/><path d="M349.42,197.13q.7,9.11.54,18.24c0,.16,1,0,1-.26q.16-9.13-.54-18.24c0-.19-1,0-1,.26Z"/><path d="M349.84,74.13c1-4.05,1.46-7.71,0-11.71-.14-.38-1.1-.11-1,.26,1.4,3.91.9,7.6,0,11.55-.1.41.88.27,1-.1Z"/><path d="M350.1,37.37a7.09,7.09,0,0,1-.34,2.91l1-.21a6.56,6.56,0,0,1,.39-3.84l-1,.21a28.3,28.3,0,0,1-.8,4.88c-.06.23.89.09,1-.16a28.85,28.85,0,0,0,.81-5c0-.2-.88,0-1,.21a6.73,6.73,0,0,0-.4,3.94c0,.24.9,0,1-.21a7.31,7.31,0,0,0,.35-3c0-.2-1,0-1,.26Z"/><path d="M350.89,52.8l-.06-.53-.29-.19a20.24,20.24,0,0,0-1,7.28c0,.27,1,.09,1-.26a19.91,19.91,0,0,1,1-7.15c.05-.15-.2-.19-.29-.19-.73,0-1.62.43-1.3,1.3.11.31,1.07,0,1-.26Z"/><path d="M169.89,235.68a30.35,30.35,0,0,0,14.7-1.29c.64-.22.06-.53-.38-.38a28.39,28.39,0,0,1-13.73,1.16c-.3,0-1.13.43-.59.51Z"/><path d="M214.09,234.81l-.85.48.73.56c.19-1.25,2-.44,2.79-.43a5.51,5.51,0,0,0,2.16-.57c.58-.25.33-1.21-.27-1a4.48,4.48,0,0,1-2.21.49,8.45,8.45,0,0,0-1.87-.19,1.73,1.73,0,0,0-1.57,1.4.51.51,0,0,0,.73.56l.85-.48a.5.5,0,0,0-.5-.86Z"/><path d="M306.74,235l-3.5-1.24c-.61-.22-.87.75-.27,1l3.5,1.24c.61.22.87-.75.27-1Z"/><path d="M305,234.7a7.33,7.33,0,0,0,6.36.15c.59-.26.08-1.12-.5-.86a6.24,6.24,0,0,1-5.35-.15c-.58-.28-1.08.58-.5.86Z"/><path d="M303.59,234a10.58,10.58,0,0,1-3.11-.25c-.63-.15-.89.82-.27,1a11.52,11.52,0,0,0,3.38.28c.64,0,.64-1,0-1Z"/><path d="M350,235.26c-3.51-1.3-7.77-.38-11.44-.48a82.52,82.52,0,0,1-13.5-1.53c-.63-.12-.9.84-.27,1a84.74,84.74,0,0,0,11.87,1.49q3.07.16,6.16.08c2.34-.06,4.66-.4,6.92.44.6.22.87-.74.27-1Z"/><path d="M350.64,235.09a31.7,31.7,0,0,1-1-6.6c0-.64-1-.64-1,0a33,33,0,0,0,1.08,6.86.5.5,0,0,0,1-.27Z"/><path d="M39.84,234.52a74.74,74.74,0,0,1-20.08-2.66.5.5,0,0,0-.27,1,75.73,75.73,0,0,0,20.34,2.69.5.5,0,0,0,0-1Z"/><path d="M56.59,234.74l-1.18-.06v1a164.39,164.39,0,0,0,22.7-.58c.63-.07.64-1.07,0-1a164.39,164.39,0,0,1-22.7.58c-.65,0-.64,1,0,1l1.18.06c.64,0,.64-1,0-1Z"/><path d="M55.59,234.79a6.6,6.6,0,0,1-3.22-1.26c-.52-.38-1,.49-.5.86a7.58,7.58,0,0,0,3.72,1.4c.64.07.63-.93,0-1Z"/><path d="M54.84,234.5a25.48,25.48,0,0,0-5.31.3c-.56.09-.42,1,.13,1a28.93,28.93,0,0,0,6.27-1,.5.5,0,0,0-.27-1,27.69,27.69,0,0,1-6,.91l.13,1a24.2,24.2,0,0,1,5-.27c.64,0,.64-1,0-1Z"/><path d="M98.09,235.6a64.52,64.52,0,0,0,13.84-2,.5.5,0,0,0-.27-1,63.28,63.28,0,0,1-13.57,2c-.64,0-.64,1,0,1Z"/><path d="M151.23,235.86a20.9,20.9,0,0,0,8.08-.57c3.14-.66,6.27-.6,9.41-1.08.63-.1.36-1.06-.27-1-2.55.39-5.12.23-7.66.71-3.1.59-6.11,1.49-9.3.94-.63-.11-.9.85-.27,1Z"/></g></g></svg>